<svg width="88" height="74" viewBox="0 0 88 74" fill="none" xmlns="http://www.w3.org/2000/svg">
<mask id="path-1-inside-1_1858_2229" fill="white">
<path d="M80 0C84.4183 0 88 3.58172 88 8V56C88 60.4183 84.4183 64 80 64H50.9279C50.5707 64 50.2405 64.1906 50.0619 64.5L44.866 73.4999C44.4811 74.1666 43.5189 74.1666 43.134 73.4999L37.9381 64.5C37.7595 64.1906 37.4293 64 37.0721 64H8C3.58172 64 0 60.4183 0 56V8C0 3.58172 3.58172 1.28851e-07 8 0H80Z"/>
</mask>
<path d="M80 0C84.4183 0 88 3.58172 88 8V56C88 60.4183 84.4183 64 80 64H50.9279C50.5707 64 50.2405 64.1906 50.0619 64.5L44.866 73.4999C44.4811 74.1666 43.5189 74.1666 43.134 73.4999L37.9381 64.5C37.7595 64.1906 37.4293 64 37.0721 64H8C3.58172 64 0 60.4183 0 56V8C0 3.58172 3.58172 1.28851e-07 8 0H80Z" fill="#393939"/>
<path d="M80 64V65V64ZM0 8H-1H0ZM8 0V-1V0ZM37.9381 64.5L37.0721 65L37.9381 64.5ZM44.866 73.4999L44 72.9999L44.866 73.4999ZM43.134 73.4999L44 72.9999L43.134 73.4999ZM50.0619 64.5L50.9279 65L50.0619 64.5ZM80 0V1C83.866 1 87 4.13401 87 8H88H89C89 3.02944 84.9706 -1 80 -1V0ZM88 8H87V56H88H89V8H88ZM88 56H87C87 59.866 83.866 63 80 63V64V65C84.9706 65 89 60.9706 89 56H88ZM80 64V63H50.9279V64V65H80V64ZM50.0619 64.5L49.1959 64L44 72.9999L44.866 73.4999L45.7321 73.9999L50.9279 65L50.0619 64.5ZM43.134 73.4999L44 72.9999L38.8041 64L37.9381 64.5L37.0721 65L42.2679 73.9999L43.134 73.4999ZM37.0721 64V63H8V64V65H37.0721V64ZM8 64V63C4.13401 63 1 59.866 1 56H0H-1C-1 60.9706 3.02944 65 8 65V64ZM0 56H1V8H0H-1V56H0ZM0 8H1C1 4.13401 4.13401 1 8 1V0V-1C3.02944 -1 -1 3.02944 -1 8H0ZM8 0V1H80V0V-1H8V0ZM37.9381 64.5L38.8041 64C38.4469 63.3812 37.7866 63 37.0721 63V64V65L37.9381 64.5ZM44.866 73.4999L44 72.9999L43.134 73.4999L42.2679 73.9999C43.0377 75.3333 44.9623 75.3333 45.7321 73.9999L44.866 73.4999ZM50.9279 64V63C50.2134 63 49.5531 63.3812 49.1959 64L50.0619 64.5L50.9279 65V64Z" fill="#525252" mask="url(#path-1-inside-1_1858_2229)"/>
</svg>
