<svg width="48" height="48" viewBox="0 0 48 48" fill="none" xmlns="http://www.w3.org/2000/svg">
<path d="M34.6673 30.5783L27.1846 30.5785L28.682 35.3041C28.9514 36.1574 28.8154 37.1034 28.3154 37.8332C27.8155 38.5631 27.0048 38.9996 26.1501 38.9996L24.0008 38.9997C23.6048 38.9997 23.2301 38.8144 22.9755 38.4944L16.7086 30.5788L13.3339 30.5789C11.8633 30.5789 10.6672 29.32 10.6672 27.7719L10.6669 15.1404C10.6668 13.5923 11.8628 12.3333 13.3335 12.3333L31.0761 12.3328C31.6186 12.3347 32.1478 12.5098 32.5938 12.8351C33.0397 13.1604 33.3813 13.6205 33.5735 14.1545L37.2498 24.4716C37.3056 24.6292 37.334 24.796 37.3338 24.9642L37.3339 27.7712C37.3339 29.3193 36.1379 30.5783 34.6673 30.5783ZM13.3339 27.7719L16.0005 27.7718L16.0002 15.1402L13.3335 15.1403L13.3339 27.7719ZM34.6671 25.2183L31.0762 15.1398L18.6669 15.1401L18.6672 28.6672L24.6247 36.1926L26.1527 36.1926L24.0699 29.62C24.0023 29.409 23.9834 29.1841 24.0149 28.964C24.0463 28.7438 24.1272 28.5347 24.2508 28.354C24.3743 28.1733 24.537 28.0262 24.7254 27.9249C24.9138 27.8236 25.1223 27.771 25.3339 27.7716L34.6672 27.7713L34.6671 25.2183Z" fill="#F4F4F4" stroke="#F4F4F4" stroke-width="0.666667"/>
</svg>
