<svg width="48" height="48" viewBox="0 0 48 48" fill="none" xmlns="http://www.w3.org/2000/svg">
<path d="M34.6672 17.4204L27.1845 17.4206L28.6818 12.695C28.9511 11.8416 28.815 10.8957 28.315 10.1659C27.815 9.43605 27.0043 8.99958 26.1497 8.9996L24.0003 8.99965C23.6043 8.99967 23.2297 9.18494 22.975 9.50494L16.7085 17.4209L13.3339 17.421C11.8632 17.421 10.6672 18.68 10.6673 20.2281L10.6676 32.8596C10.6676 34.4077 11.8637 35.6666 13.3343 35.6666L31.077 35.6661C31.6195 35.6642 32.1487 35.489 32.5946 35.1638C33.0405 34.8385 33.3821 34.3784 33.5743 33.8443L37.25 23.527C37.3058 23.3694 37.3343 23.2026 37.334 23.0344L37.3339 20.2274C37.3339 18.6793 36.1379 17.4204 34.6672 17.4204ZM13.3339 20.228L16.0006 20.2279L16.0009 32.8595L13.3343 32.8596L13.3339 20.228ZM34.6673 22.7804L31.0769 32.8591L18.6676 32.8594L18.6673 19.3324L24.6244 11.8067L26.1524 11.8066L24.0699 18.3793C24.0023 18.5903 23.9834 18.8152 24.0149 19.0353C24.0464 19.2555 24.1272 19.4646 24.2508 19.6453C24.3744 19.826 24.5371 19.9731 24.7255 20.0744C24.9138 20.1757 25.1224 20.2282 25.3339 20.2277L34.6673 20.2274L34.6673 22.7804Z" fill="#F4F4F4" stroke="#F4F4F4" stroke-width="0.666667"/>
</svg>
