<svg width="48" height="48" viewBox="0 0 48 48" fill="none" xmlns="http://www.w3.org/2000/svg">
<path d="M18.0075 35.5729C18.0075 34.9108 18.5442 34.3741 19.2063 34.3741H28.7969C29.459 34.3741 29.9957 34.9108 29.9957 35.5729C29.9957 36.235 29.459 36.7717 28.7969 36.7717H19.2063C18.5442 36.7717 18.0075 36.235 18.0075 35.5729ZM20.4051 40.3682C20.4051 39.7061 20.9419 39.1694 21.604 39.1694H26.3992C27.0613 39.1694 27.5981 39.7061 27.5981 40.3682C27.5981 41.0303 27.0613 41.567 26.3992 41.567H21.604C20.9419 41.567 20.4051 41.0303 20.4051 40.3682ZM24.0016 8C20.8221 8 17.7729 9.26304 15.5246 11.5113C13.2764 13.7595 12.0134 16.8087 12.0134 19.9882C11.9323 21.7305 12.2661 23.4672 12.9872 25.0553C13.7083 26.6434 14.7962 28.0376 16.1613 29.1232C16.8864 29.7976 17.4098 30.2965 17.7101 30.8296C18.0352 31.4064 18.5442 31.9764 19.2063 31.9764C19.8684 31.9764 20.4244 31.4309 20.2632 30.7888C19.887 29.2903 18.8217 28.3041 17.7797 27.349C16.6592 26.491 15.7663 25.3713 15.179 24.088C14.5917 22.8047 14.328 21.397 14.411 19.9882C14.411 17.4446 15.4215 15.0052 17.22 13.2067C19.0186 11.4081 21.458 10.3976 24.0016 10.3976C26.5452 10.3976 28.9846 11.4081 30.7832 13.2067C32.5817 15.0052 33.5922 17.4446 33.5922 19.9882C33.6738 21.3981 33.4083 22.8064 32.8189 24.0898C32.2295 25.3731 31.3342 26.4922 30.2115 27.349C29.1774 28.3154 28.1121 29.2819 27.738 30.7885C27.5785 31.4311 28.1348 31.9764 28.7969 31.9764C29.459 31.9764 29.9671 31.4066 30.2898 30.8285C30.5879 30.2944 31.1097 29.7927 31.8419 29.1113C33.2061 28.0275 34.2935 26.6353 35.0146 25.0493C35.7357 23.4632 36.0699 21.7287 35.9898 19.9882C35.9898 18.4139 35.6797 16.855 35.0773 15.4005C34.4748 13.9461 33.5918 12.6245 32.4786 11.5113C31.3653 10.3981 30.0438 9.51501 28.5893 8.91255C27.1348 8.31008 25.5759 8 24.0016 8Z" fill="#F4F4F4" stroke="#F4F4F4" stroke-width="1.5"/>
</svg>
