<svg xmlns="http://www.w3.org/2000/svg" width="14" height="12" viewBox="0 0 14 12" fill="none">
  <path d="M7.33105 0.256836C7.74155 -0.112607 8.3737 -0.0794043 8.74316 0.331055L13.2432 5.33105C13.2489 5.33742 13.2542 5.34411 13.2598 5.35059C13.2682 5.36044 13.2761 5.37068 13.2842 5.38086C13.2956 5.39535 13.3068 5.40986 13.3174 5.4248C13.3262 5.43728 13.3345 5.45001 13.3428 5.46289C13.353 5.47897 13.3628 5.49522 13.3721 5.51172C13.3775 5.52137 13.3826 5.53117 13.3877 5.54102C13.3956 5.5562 13.4031 5.57144 13.4102 5.58691C13.4193 5.60708 13.4277 5.62759 13.4355 5.64844C13.4381 5.65519 13.44 5.66215 13.4424 5.66895C13.4503 5.69143 13.4576 5.71412 13.4639 5.7373C13.4664 5.7467 13.4684 5.75618 13.4707 5.76562C13.4751 5.78371 13.4791 5.80186 13.4824 5.82031C13.4853 5.83593 13.4881 5.85148 13.4902 5.86719C13.4923 5.88303 13.4938 5.89897 13.4951 5.91504C13.4969 5.93619 13.4976 5.95731 13.498 5.97852C13.4982 5.98564 13.5 5.99284 13.5 6C13.5 6.00261 13.499 6.00521 13.499 6.00781C13.4988 6.02999 13.4977 6.05209 13.4961 6.07422C13.4952 6.08632 13.4945 6.09837 13.4932 6.11035C13.4862 6.17336 13.474 6.23591 13.4551 6.29688C13.4407 6.34331 13.4211 6.3874 13.4004 6.43066C13.3527 6.53036 13.2894 6.62466 13.207 6.70703L8.70703 11.207C8.31652 11.5975 7.68348 11.5975 7.29297 11.207C6.90246 10.8165 6.90249 10.1835 7.29297 9.79297L10.085 7H1C0.447747 7 5.17945e-05 6.55224 0 6C0 5.44772 0.447715 5 1 5H10.2549L7.25684 1.66895C6.88741 1.25847 6.92064 0.626308 7.33105 0.256836Z" fill="#F4F4F4"/>
</svg>