<svg width="150" height="18" viewBox="0 0 150 18" fill="none" xmlns="http://www.w3.org/2000/svg">
<g clip-path="url(#clip0_606_3906)">
<g clip-path="url(#clip1_606_3906)">
<path d="M15.741 11.9364L16.3506 14.3567C15.5438 14.6257 13.3028 15.3607 9.96813 15.3607C3.44223 15.3607 0.717132 12.546 0.717132 8.8169C0.717132 5.08781 3.44223 2.27307 9.96813 2.27307C13.3028 2.27307 15.5438 3.00813 16.3506 3.27705L15.741 5.69737C13.9303 5.17745 12.0657 4.78303 9.96813 4.78303C5.23506 4.78303 3.46016 6.45036 3.46016 8.8169C3.46016 11.1834 5.23506 12.8508 9.96813 12.8508C12.0657 12.8508 13.9303 12.4563 15.741 11.9364ZM55.979 9.71331V2.54199H58.6682V15.0918H55.979L46.3336 5.93044L46.3873 7.92048V15.0918H43.6981V2.54199H46.3873L56.0328 11.7213L55.979 9.71331ZM73.4605 9.71331V2.54199H76.1497V15.0918H73.4605L63.815 5.93044L63.8688 7.92048V15.0918H61.1796V2.54199H63.8688L73.5142 11.7213L73.4605 9.71331ZM92.6272 15.0918H78.6611V2.54199H92.2686V5.05196H81.3503V7.38263H91.1929V9.89259H81.3503V12.5818H92.6272V15.0918ZM107.847 15.0918H94.7769V2.54199H97.4662V12.5818H107.847V15.0918ZM110 15.0918V2.54199H112.689V15.0918H110ZM127.472 9.71331V2.54199H130.161V15.0918H127.472L117.826 5.93044L117.88 7.92048V15.0918H115.191V2.54199H117.88L127.525 11.7213L127.472 9.71331ZM146.692 10.0719H140.83V7.56192H149.381V9.19339C149.381 13.8189 145.509 15.3607 140.83 15.3607C135.182 15.3607 132.314 12.546 132.314 8.8169C132.314 5.08781 135.039 2.27307 141.565 2.27307C144.899 2.27307 147.14 3.04399 147.947 3.27705L147.337 5.66152C145.527 5.1416 143.662 4.78303 141.565 4.78303C136.831 4.78303 135.057 6.45036 135.057 8.8169C135.057 11.1834 136.975 12.8508 140.83 12.8508C144.612 12.8508 146.692 11.5779 146.692 10.1077V10.0719Z" fill="currentColor"/>
<rect x="18.0776" y="2.35547" width="2.68924" height="12.5498" fill="currentColor"/>
<rect x="23.4565" y="2.35547" width="2.68924" height="12.5498" fill="currentColor"/>
<path d="M42.5039 8.60352L28.834 16.4961V0.710938L42.5039 8.60352ZM31.6357 11.4395L36.6777 8.52832L31.6357 5.61719V11.4395Z" fill="currentColor"/>
</g>
</g>
<defs>
<clipPath id="clip0_606_3906">
<rect width="150" height="18" fill="white"/>
</clipPath>
<clipPath id="clip1_606_3906">
<rect width="150.299" height="25.249" fill="white" transform="translate(0 -6.9082)"/>
</clipPath>
</defs>
</svg>
