<svg width="24" height="24" viewBox="0 0 24 24" fill="none" xmlns="http://www.w3.org/2000/svg">
<path d="M18.0752 3.87524C18.4756 3.87527 18.8723 3.95337 19.2422 4.10571C19.6121 4.25804 19.9483 4.48144 20.2314 4.76294C20.5147 5.04453 20.7392 5.37931 20.8926 5.74731C21.0459 6.11535 21.125 6.51005 21.125 6.90845V14.5139C21.125 14.9123 21.0459 15.307 20.8926 15.675C20.7393 16.0429 20.5145 16.377 20.2314 16.6584C19.9483 16.94 19.612 17.1633 19.2422 17.3157C18.8723 17.468 18.4756 17.5471 18.0752 17.5471H12.9512L8.47461 20.8772C8.28889 21.0154 8.06781 21.0998 7.83691 21.1204C7.60624 21.1408 7.37421 21.0974 7.16699 20.9944C6.95971 20.8913 6.78515 20.7325 6.66309 20.5364C6.541 20.3401 6.47572 20.113 6.47559 19.8821V17.5471H5.9248C5.1162 17.5471 4.34055 17.2271 3.76855 16.6584C3.19661 16.0897 2.87503 15.3184 2.875 14.5139V6.90845C2.875 6.10381 3.19649 5.33168 3.76855 4.76294C4.34053 4.19438 5.11629 3.8753 5.9248 3.87524H18.0752ZM5.9248 5.46704C5.54008 5.46709 5.17124 5.61965 4.89941 5.88989C4.62764 6.16015 4.47461 6.5266 4.47461 6.90845V14.5139C4.47466 15.3084 5.12388 15.9542 5.9248 15.9543H8.07422V19.1868L12.3877 15.9797L12.4209 15.9543H18.0752C18.4599 15.9543 18.8288 15.8027 19.1006 15.5325C19.3724 15.2622 19.5254 14.8958 19.5254 14.5139V6.90845C19.5254 6.5266 19.3724 6.16015 19.1006 5.88989C18.8288 5.61964 18.4599 5.46709 18.0752 5.46704H5.9248Z" fill="#A8A8A8" stroke="#A8A8A8" stroke-width="0.25"/>
</svg>
