<svg width="20" height="19" viewBox="0 0 20 19" fill="none" xmlns="http://www.w3.org/2000/svg">
<path d="M16.0752 0.875214C16.4756 0.875239 16.8723 0.953343 17.2422 1.10568C17.6121 1.25801 17.9483 1.48141 18.2314 1.76291C18.5147 2.0445 18.7392 2.37928 18.8926 2.74728C19.0459 3.11532 19.125 3.51001 19.125 3.90842V11.5139C19.125 11.9123 19.0459 12.307 18.8926 12.675C18.7393 13.0429 18.5145 13.3769 18.2314 13.6584C17.9483 13.9399 17.612 14.1633 17.2422 14.3156C16.8723 14.468 16.4756 14.5471 16.0752 14.5471H10.9512L6.47461 17.8772C6.28889 18.0154 6.06781 18.0998 5.83691 18.1203C5.60624 18.1408 5.37421 18.0974 5.16699 17.9944C4.95971 17.8913 4.78515 17.7325 4.66309 17.5363C4.541 17.34 4.47572 17.113 4.47559 16.882V14.5471H3.9248C3.1162 14.547 2.34055 14.2271 1.76855 13.6584C1.19661 13.0897 0.875026 12.3184 0.875 11.5139V3.90842C0.875 3.10378 1.19649 2.33165 1.76855 1.76291C2.34053 1.19435 3.11629 0.875265 3.9248 0.875214H16.0752ZM3.9248 2.46701C3.54008 2.46706 3.17124 2.61961 2.89941 2.88986C2.62764 3.16012 2.47461 3.52657 2.47461 3.90842V11.5139C2.47466 12.3084 3.12388 12.9542 3.9248 12.9543H6.07422V16.1867L10.3877 12.9797L10.4209 12.9543H16.0752C16.4599 12.9543 16.8288 12.8027 17.1006 12.5324C17.3724 12.2622 17.5254 11.8958 17.5254 11.5139V3.90842C17.5254 3.52657 17.3724 3.16012 17.1006 2.88986C16.8288 2.61961 16.4599 2.46706 16.0752 2.46701H3.9248Z" fill="#A8A8A8" stroke="#A8A8A8" stroke-width="0.25"/>
</svg>
