<svg width="56" height="24" viewBox="0 0 56 24" fill="none" xmlns="http://www.w3.org/2000/svg">
<path d="M3 21L20 21" stroke="#FA4D56" stroke-width="2" stroke-linecap="round"/>
<path d="M14.4971 2.72288C15.4712 1.75903 17.0405 1.75905 18.0146 2.72288L19.5225 4.21507C20.5111 5.19342 20.5111 6.79136 19.5225 7.76976L8.90332 18.2776C8.43526 18.7407 7.80302 19.0012 7.14453 19.0012H5.62109C4.24053 19.0012 3.12134 17.8817 3.12109 16.5012V14.9983C3.12124 14.3472 3.38194 13.7228 3.84473 13.2649L14.4971 2.72288ZM16.6074 4.14476C16.4126 3.9522 16.0991 3.95213 15.9043 4.14476L5.25098 14.6867C5.16791 14.769 5.12124 14.8814 5.12109 14.9983V16.5012C5.12134 16.7771 5.3451 17.0012 5.62109 17.0012H7.14453C7.27622 17.0012 7.40249 16.9483 7.49609 16.8557L18.1152 6.34788C18.3129 6.1522 18.3129 5.83259 18.1152 5.63694L16.6074 4.14476Z" fill="#FA4D56"/>
<path d="M32.7656 5.95312C34.8125 5.95312 36.25 7.07812 36.2656 8.75C36.25 10.1719 35.1719 11.2188 33.5469 11.4688V12.7031C34.7891 12.6406 36.0312 12.5312 37.1875 12.3594L37.2969 13.4531C34.3594 13.9844 31.0625 14.0312 28.6562 14.0312L28.5 12.8281C29.5469 12.8359 30.7734 12.8281 32.0625 12.7812V11.4844C30.3906 11.25 29.2656 10.1953 29.2812 8.75C29.2656 7.07812 30.7188 5.95312 32.7656 5.95312ZM32.7656 7.09375C31.5312 7.09375 30.6562 7.73438 30.6719 8.75C30.6562 9.73438 31.5312 10.3906 32.7656 10.3906C34.0156 10.3906 34.8594 9.73438 34.8594 8.75C34.8594 7.73438 34.0156 7.09375 32.7656 7.09375ZM39.5312 5.34375V9.96875H41.5312V11.2188H39.5312V16.0469H38.0469V5.34375H39.5312ZM40.0312 17.8125V19.0312H30.4844V15.1094H31.9688V17.8125H40.0312ZM54.7563 16.4062V17.6562H41.9438V16.4062H45.4438V13.9375H43.5063V9.48438H51.725V7.53125H43.475V6.3125H53.1938V10.6875H44.975V12.7188H53.5219V13.9375H51.3969V16.4062H54.7563ZM46.8813 16.4062H49.9438V13.9375H46.8813V16.4062Z" fill="#FA4D56"/>
</svg>
