<svg width="19" height="20" viewBox="0 0 19 20" fill="none" xmlns="http://www.w3.org/2000/svg">
<path d="M1 19.0002L18 19.0002" stroke="#FA4D56" stroke-width="2" stroke-linecap="round"/>
<path d="M12.4971 0.722882C13.4712 -0.240968 15.0405 -0.240954 16.0146 0.722882L17.5225 2.21507C18.5111 3.19342 18.5111 4.79136 17.5225 5.76976L6.90332 16.2776C6.43526 16.7407 5.80302 17.0012 5.14453 17.0012H3.62109C2.24053 17.0012 1.12134 15.8817 1.12109 14.5012V12.9983C1.12124 12.3472 1.38194 11.7228 1.84473 11.2649L12.4971 0.722882ZM14.6074 2.14476C14.4126 1.9522 14.0991 1.95213 13.9043 2.14476L3.25098 12.6867C3.16791 12.769 3.12124 12.8814 3.12109 12.9983V14.5012C3.12134 14.7771 3.3451 15.0012 3.62109 15.0012H5.14453C5.27622 15.0012 5.40249 14.9483 5.49609 14.8557L16.1152 4.34788C16.3129 4.1522 16.3129 3.83259 16.1152 3.63694L14.6074 2.14476Z" fill="#FA4D56"/>
</svg>
