<svg width="24" height="24" viewBox="0 0 24 24" fill="none" xmlns="http://www.w3.org/2000/svg">
<path d="M3 21.0002L20 21.0002" stroke="currentColor" stroke-width="2" stroke-linecap="round"/>
<path d="M14.4971 2.72288C15.4712 1.75903 17.0405 1.75905 18.0146 2.72288L19.5225 4.21507C20.5111 5.19342 20.5111 6.79136 19.5225 7.76976L8.90332 18.2776C8.43526 18.7407 7.80302 19.0012 7.14453 19.0012H5.62109C4.24053 19.0012 3.12134 17.8817 3.12109 16.5012V14.9983C3.12124 14.3472 3.38194 13.7228 3.84473 13.2649L14.4971 2.72288ZM16.6074 4.14476C16.4126 3.9522 16.0991 3.95213 15.9043 4.14476L5.25098 14.6867C5.16791 14.769 5.12124 14.8814 5.12109 14.9983V16.5012C5.12134 16.7771 5.3451 17.0012 5.62109 17.0012H7.14453C7.27622 17.0012 7.40249 16.9483 7.49609 16.8557L18.1152 6.34788C18.3129 6.1522 18.3129 5.83259 18.1152 5.63694L16.6074 4.14476Z" fill="currentColor"/>
</svg>
