<svg width="24" height="24" viewBox="0 0 24 24" fill="none" xmlns="http://www.w3.org/2000/svg">
<path d="M19.1691 5.28426C19.5601 5.67406 19.5596 6.30656 19.1684 6.69628L13.3292 12.5132L18.8913 18.0561C19.2826 18.4459 19.2839 19.0789 18.8941 19.4702C18.5043 19.8614 17.871 19.8627 17.4798 19.473L11.9121 13.9245L6.34582 19.4702C5.95467 19.8596 5.32063 19.8602 4.92944 19.4709C4.53828 19.0812 4.53776 18.4487 4.92875 18.0589L10.495 12.5132L4.65788 6.69836C4.26664 6.30857 4.26534 5.67551 4.65512 5.28426C5.04492 4.89313 5.67822 4.89176 6.06944 5.28149L11.9121 11.1018L17.752 5.28426C18.1433 4.89469 18.7779 4.89455 19.1691 5.28426Z" fill="#F4F4F4"/>
</svg>
