<svg width="56" height="24" viewBox="0 0 56 24" fill="none" xmlns="http://www.w3.org/2000/svg">
<path d="M3 21L20 21" stroke="#F4F4F4" stroke-width="2" stroke-linecap="round"/>
<path d="M14.4971 2.72288C15.4712 1.75903 17.0405 1.75905 18.0146 2.72288L19.5225 4.21507C20.5111 5.19342 20.5111 6.79136 19.5225 7.76976L8.90332 18.2776C8.43526 18.7407 7.80302 19.0012 7.14453 19.0012H5.62109C4.24053 19.0012 3.12134 17.8817 3.12109 16.5012V14.9983C3.12124 14.3472 3.38194 13.7228 3.84473 13.2649L14.4971 2.72288ZM16.6074 4.14476C16.4126 3.9522 16.0991 3.95213 15.9043 4.14476L5.25098 14.6867C5.16791 14.769 5.12124 14.8814 5.12109 14.9983V16.5012C5.12134 16.7771 5.3451 17.0012 5.62109 17.0012H7.14453C7.27622 17.0012 7.40249 16.9483 7.49609 16.8557L18.1152 6.34788C18.3129 6.1522 18.3129 5.83259 18.1152 5.63694L16.6074 4.14476Z" fill="#F4F4F4"/>
<path d="M35.6875 6.5625C35.6719 8.42188 37.9531 10.1719 40.7031 10.5312L40.125 11.75C37.8359 11.3828 35.8203 10.1953 34.9219 8.54688C34 10.2031 31.9922 11.3828 29.7188 11.75L29.125 10.5312C31.875 10.1719 34.125 8.4375 34.1406 6.5625V5.79688H35.6875V6.5625ZM41.2812 13.125V14.3438H35.5938V19.3281H34.1406V14.3438H28.5156V13.125H41.2812ZM53.6156 5.32812V13.6562H52.1313V10.1094H49.5219V8.89062H52.1313V5.32812H53.6156ZM48.9281 14.0469C51.8656 14.0469 53.6625 15.0156 53.6625 16.6875C53.6625 18.3594 51.8656 19.3125 48.9281 19.3281C45.9906 19.3125 44.1781 18.3594 44.1938 16.6875C44.1781 15.0156 45.9906 14.0469 48.9281 14.0469ZM48.9281 15.2031C46.8813 15.2031 45.6625 15.7344 45.6625 16.6875C45.6625 17.625 46.8813 18.1719 48.9281 18.1562C50.975 18.1719 52.1938 17.625 52.1938 16.6875C52.1938 15.7344 50.975 15.2031 48.9281 15.2031ZM46.9594 7.79688C46.9594 9.57812 48.225 11.2969 50.3344 12.0156L49.5688 13.1875C47.9984 12.6406 46.8422 11.5234 46.2406 10.1406C45.6234 11.7109 44.3969 12.9688 42.725 13.5781L41.9438 12.3906C44.1156 11.6406 45.4438 9.75 45.4438 7.8125V7.5H42.4125V6.29688H49.9594V7.5H46.9594V7.79688Z" fill="#F4F4F4"/>
</svg>
