<svg width="24" height="24" viewBox="0 0 24 24" fill="none" xmlns="http://www.w3.org/2000/svg">
<path d="M18.4 8.05263H13.9104L14.8088 5.21726C14.9704 4.70526 14.8888 4.13768 14.5888 3.69979C14.2888 3.26189 13.8024 3 13.2896 3H12C11.7624 3 11.5376 3.11116 11.3848 3.30316L7.6248 8.05263H5.6C4.7176 8.05263 4 8.808 4 9.73684V17.3158C4 18.2446 4.7176 19 5.6 19H16.2456C16.5711 18.9989 16.8886 18.8938 17.1562 18.6986C17.4237 18.5034 17.6287 18.2274 17.744 17.9069L19.9496 11.7166C19.9831 11.6221 20.0002 11.522 20 11.4211V9.73684C20 8.808 19.2824 8.05263 18.4 8.05263ZM5.6 9.73684H7.2V17.3158H5.6V9.73684ZM18.4 11.2686L16.2456 17.3158H8.8V9.19958L12.3744 4.68421H13.2912L12.0416 8.62779C12.001 8.75437 11.9897 8.88931 12.0086 9.02141C12.0275 9.15352 12.076 9.27898 12.1501 9.3874C12.2243 9.49583 12.3219 9.58408 12.4349 9.64485C12.5479 9.70562 12.6731 9.73716 12.8 9.73684H18.4V11.2686Z" fill="#A8A8A8" stroke="#A8A8A8" stroke-width="0.4"/>
</svg>
