<svg width="40" height="40" viewBox="0 0 40 40" fill="none" xmlns="http://www.w3.org/2000/svg">
<g clip-path="url(#clip0_509_4387)">
<circle cx="20" cy="20" r="20" fill="#FA4D56"/>
<path d="M20 22V21H20L20 22ZM28 28.6514L29 28.6514V28.6514H28ZM27.6406 29V30H27.6412L27.6406 29ZM12.3604 29L12.3597 30H12.3604V29ZM12 28.6514H11V28.6514L12 28.6514ZM20 22V23C24.0468 23 27 25.6952 27 28.6514H28H29C29 24.2609 24.7898 21 20 21V22ZM28 28.6514L27 28.6513C27 28.2554 27.3247 28.0002 27.64 28L27.6406 29L27.6412 30C28.3485 29.9996 29 29.4393 29 28.6514L28 28.6514ZM27.6406 29V28H12.3604V29V30H27.6406V29ZM12.3604 29L12.361 28C12.6726 28.0002 13 28.2519 13 28.6513L12 28.6514L11 28.6514C11 29.4428 11.6561 29.9995 12.3597 30L12.3604 29ZM12 28.6514H13C13 25.6953 15.9533 23.0001 20 23L20 22L20 21C15.2103 21.0001 11 24.2609 11 28.6514H12ZM20 11V12C21.6569 12 23 13.3431 23 15H24H25C25 12.2386 22.7614 10 20 10V11ZM24 15H23C23 16.6569 21.6569 18 20 18V19V20C22.7614 20 25 17.7614 25 15H24ZM20 19V18C18.3431 18 17 16.6569 17 15H16H15C15 17.7614 17.2386 20 20 20V19ZM16 15H17C17 13.3431 18.3431 12 20 12V11V10C17.2386 10 15 12.2386 15 15H16Z" fill="#F4F4F4"/>
</g>
<defs>
<clipPath id="clip0_509_4387">
<rect width="40" height="40" fill="white"/>
</clipPath>
</defs>
</svg>
