<svg width="24" height="24" viewBox="0 0 24 24" fill="none" xmlns="http://www.w3.org/2000/svg">
<path d="M12 14V13H12L12 14ZM20 20.6514L21 20.6514V20.6514H20ZM19.6406 21V22H19.6412L19.6406 21ZM4.36035 21L4.35968 22H4.36035V21ZM4 20.6514H3V20.6514L4 20.6514ZM12 14V15C16.0468 15 19 17.6952 19 20.6514H20H21C21 16.2609 16.7898 13 12 13V14ZM20 20.6514L19 20.6513C19 20.2554 19.3247 20.0002 19.64 20L19.6406 21L19.6412 22C20.3485 21.9996 21 21.4393 21 20.6514L20 20.6514ZM19.6406 21V20H4.36035V21V22H19.6406V21ZM4.36035 21L4.36102 20C4.67262 20.0002 4.99998 20.2519 5 20.6513L4 20.6514L3 20.6514C3.00003 21.4428 3.65613 21.9995 4.35968 22L4.36035 21ZM4 20.6514H5C5 17.6953 7.95333 15.0001 12 15L12 14L12 13C7.21033 13.0001 3 16.2609 3 20.6514H4ZM12 3V4C13.6569 4 15 5.34315 15 7H16H17C17 4.23858 14.7614 2 12 2V3ZM16 7H15C15 8.65685 13.6569 10 12 10V11V12C14.7614 12 17 9.76142 17 7H16ZM12 11V10C10.3431 10 9 8.65685 9 7H8H7C7 9.76142 9.23858 12 12 12V11ZM8 7H9C9 5.34315 10.3431 4 12 4V3V2C9.23858 2 7 4.23858 7 7H8Z" fill="#F4F4F4"/>
</svg>
