<svg width="24" height="24" viewBox="0 0 24 24" fill="none" xmlns="http://www.w3.org/2000/svg">
<path d="M5.25 7.875C5.25 7.17881 5.52656 6.51113 6.01884 6.01884C6.51113 5.52656 7.17881 5.25 7.875 5.25C8.57119 5.25 9.23887 5.52656 9.73116 6.01884C10.2234 6.51113 10.5 7.17881 10.5 7.875C10.5 8.57119 10.2234 9.23887 9.73116 9.73116C9.23887 10.2234 8.57119 10.5 7.875 10.5C7.17881 10.5 6.51113 10.2234 6.01884 9.73116C5.52656 9.23887 5.25 8.57119 5.25 7.875ZM7.875 3.75C6.78098 3.75 5.73177 4.1846 4.95818 4.95818C4.1846 5.73177 3.75 6.78098 3.75 7.875C3.75 8.96902 4.1846 10.0182 4.95818 10.7918C5.73177 11.5654 6.78098 12 7.875 12C8.96902 12 10.0182 11.5654 10.7918 10.7918C11.5654 10.0182 12 8.96902 12 7.875C12 6.78098 11.5654 5.73177 10.7918 4.95818C10.0182 4.1846 8.96902 3.75 7.875 3.75ZM15.75 9C15.75 8.60218 15.908 8.22064 16.1893 7.93934C16.4706 7.65804 16.8522 7.5 17.25 7.5C17.6478 7.5 18.0294 7.65804 18.3107 7.93934C18.592 8.22064 18.75 8.60218 18.75 9C18.75 9.39782 18.592 9.77936 18.3107 10.0607C18.0294 10.342 17.6478 10.5 17.25 10.5C16.8522 10.5 16.4706 10.342 16.1893 10.0607C15.908 9.77936 15.75 9.39782 15.75 9ZM17.25 6C16.4544 6 15.6913 6.31607 15.1287 6.87868C14.5661 7.44129 14.25 8.20435 14.25 9C14.25 9.79565 14.5661 10.5587 15.1287 11.1213C15.6913 11.6839 16.4544 12 17.25 12C18.0457 12 18.8087 11.6839 19.3713 11.1213C19.9339 10.5587 20.25 9.79565 20.25 9C20.25 8.20435 19.9339 7.44129 19.3713 6.87868C18.8087 6.31607 18.0457 6 17.25 6ZM1.5 15.75C1.5 15.1533 1.73705 14.581 2.15901 14.159C2.58097 13.7371 3.15326 13.5 3.75 13.5H12C12.5967 13.5 13.169 13.7371 13.591 14.159C14.0129 14.581 14.25 15.1533 14.25 15.75V15.9195C14.2483 15.9894 14.2433 16.0593 14.235 16.1287C14.22 16.2585 14.1923 16.4347 14.1375 16.6432C13.9927 17.193 13.7378 17.7077 13.3883 18.156C12.5108 19.2825 10.86 20.25 7.875 20.25C4.89 20.25 3.24 19.2825 2.36175 18.156C2.01192 17.7077 1.75677 17.1931 1.61175 16.6432C1.55486 16.4225 1.51821 16.1971 1.50225 15.9697L1.50075 15.9195V15.9022L1.5 15.8962V15.75ZM3 15.8835V15.8925C3 15.9055 3.00225 15.929 3.00675 15.963C3.01425 16.0305 3.03 16.1355 3.06375 16.266C3.13125 16.527 3.2685 16.8795 3.5445 17.2343C4.07325 17.9123 5.235 18.75 7.875 18.75C10.515 18.75 11.6775 17.9122 12.2055 17.235C12.4292 16.9477 12.5925 16.6181 12.6855 16.266C12.7175 16.1435 12.739 16.0186 12.75 15.8925L12.7507 15.8835V15.75C12.7507 15.5511 12.6717 15.3603 12.5311 15.2197C12.3904 15.079 12.1997 15 12.0007 15H3.75C3.55109 15 3.36032 15.079 3.21967 15.2197C3.07902 15.3603 3 15.5511 3 15.75V15.8835ZM14.6077 18.369C15.3053 18.606 16.173 18.75 17.25 18.75C19.6507 18.75 21.015 18.0352 21.7598 17.1562C22.122 16.7288 22.3073 16.2953 22.401 15.9623C22.4514 15.7837 22.4839 15.6005 22.4977 15.4155L22.4985 15.3885L22.4993 15.372V15.3435C22.4993 15.1014 22.4518 14.8617 22.3592 14.6381C22.2666 14.4144 22.1309 14.2112 21.9598 14.04C21.7887 13.8688 21.5855 13.733 21.3619 13.6403C21.1382 13.5477 20.8986 13.5 20.6565 13.5H14.5148C14.8898 13.9193 15.162 14.4323 15.291 15H20.6565C20.844 15 20.9955 15.1492 21 15.3345L20.997 15.3675C20.988 15.4308 20.975 15.4934 20.958 15.555C20.9115 15.72 20.8155 15.951 20.6152 16.1873C20.235 16.6365 19.3493 17.25 17.25 17.25C16.3763 17.25 15.7132 17.1435 15.2092 16.9875C15.0762 17.4745 14.8736 17.9398 14.6077 18.369Z" fill="#A8A8A8" stroke="#A8A8A8" stroke-width="0.5"/>
</svg>
