<svg width="24" height="24" viewBox="0 0 24 24" fill="none" xmlns="http://www.w3.org/2000/svg">
<path d="M12.3311 6.25684C12.7415 5.88739 13.3737 5.9206 13.7432 6.33105L18.2432 11.3311C18.2489 11.3374 18.2542 11.3441 18.2598 11.3506C18.2682 11.3604 18.2761 11.3707 18.2842 11.3809C18.2956 11.3953 18.3068 11.4099 18.3174 11.4248C18.3262 11.4373 18.3345 11.45 18.3428 11.4629C18.353 11.479 18.3628 11.4952 18.3721 11.5117C18.3775 11.5214 18.3826 11.5312 18.3877 11.541C18.3956 11.5562 18.4031 11.5714 18.4102 11.5869C18.4193 11.6071 18.4277 11.6276 18.4355 11.6484C18.4381 11.6552 18.44 11.6621 18.4424 11.6689C18.4503 11.6914 18.4576 11.7141 18.4639 11.7373C18.4664 11.7467 18.4684 11.7562 18.4707 11.7656C18.4751 11.7837 18.4791 11.8019 18.4824 11.8203C18.4853 11.8359 18.4881 11.8515 18.4902 11.8672C18.4923 11.883 18.4938 11.899 18.4951 11.915C18.4969 11.9362 18.4976 11.9573 18.498 11.9785C18.4982 11.9856 18.5 11.9928 18.5 12C18.5 12.0026 18.499 12.0052 18.499 12.0078C18.4988 12.03 18.4977 12.0521 18.4961 12.0742C18.4952 12.0863 18.4945 12.0984 18.4932 12.1104C18.4862 12.1734 18.474 12.2359 18.4551 12.2969C18.4407 12.3433 18.4211 12.3874 18.4004 12.4307C18.3527 12.5304 18.2894 12.6247 18.207 12.707L13.707 17.207C13.3165 17.5975 12.6835 17.5975 12.293 17.207C11.9025 16.8165 11.9025 16.1835 12.293 15.793L15.085 13H6C5.44775 13 5.00005 12.5522 5 12C5 11.4477 5.44772 11 6 11H15.2549L12.2568 7.66895C11.8874 7.25847 11.9206 6.62631 12.3311 6.25684Z" fill="#F4F4F4"/>
</svg>
