<svg width="24" height="24" viewBox="0 0 24 24" fill="none" xmlns="http://www.w3.org/2000/svg">
<path d="M21.707 11.293L13.707 3.29303C13.5671 3.15322 13.389 3.05802 13.195 3.01945C13.0011 2.98088 12.8 3.00068 12.6173 3.07635C12.4346 3.15202 12.2785 3.28016 12.1686 3.44457C12.0587 3.60898 12 3.80228 12 4.00003V7.54503C9.26829 7.79782 6.72923 9.06089 4.87969 11.0871C3.03015 13.1132 2.00327 15.7567 2 18.5V20C2.00016 20.2076 2.06491 20.41 2.18527 20.5791C2.30564 20.7482 2.47565 20.8757 2.67173 20.9439C2.8678 21.012 3.08022 21.0174 3.27953 20.9594C3.47883 20.9014 3.65514 20.7828 3.784 20.62C4.76385 19.4552 5.96594 18.4972 7.3201 17.802C8.67426 17.1068 10.1533 16.6883 11.671 16.571C11.721 16.565 11.846 16.555 12 16.545V20C12 20.1978 12.0587 20.3911 12.1686 20.5555C12.2785 20.7199 12.4346 20.848 12.6173 20.9237C12.8 20.9994 13.0011 21.0192 13.195 20.9806C13.389 20.942 13.5671 20.8468 13.707 20.707L21.707 12.707C21.8945 12.5195 21.9998 12.2652 21.9998 12C21.9998 11.7349 21.8945 11.4806 21.707 11.293ZM14 17.586V15.5C14 15.2348 13.8946 14.9805 13.7071 14.7929C13.5196 14.6054 13.2652 14.5 13 14.5C12.745 14.5 11.704 14.55 11.438 14.585C8.74279 14.8331 6.17727 15.8571 4.052 17.533C4.29324 15.3275 5.33954 13.2884 6.99055 11.8062C8.64157 10.324 10.7813 9.50288 13 9.50003C13.2652 9.50003 13.5196 9.39467 13.7071 9.20714C13.8946 9.0196 14 8.76525 14 8.50003V6.41403L19.586 12L14 17.586Z" fill="#A8A8A8"/>
</svg>
