<svg width="24" height="24" viewBox="0 0 24 24" fill="none" xmlns="http://www.w3.org/2000/svg">
<path fill-rule="evenodd" clip-rule="evenodd" d="M18.8155 4.381C18.5455 3.84107 17.9937 3.5 17.39 3.5H6.60999C6.00632 3.5 5.45447 3.84107 5.1845 4.381L3.72434 7.30132C3.57681 7.59638 3.5 7.92175 3.5 8.25164V18.375C3.5 19.5486 4.4514 20.5 5.625 20.5H18.375C19.5486 20.5 20.5 19.5486 20.5 18.375V8.25164C20.5 7.92175 20.4232 7.59638 20.2757 7.30132L18.8155 4.381Z" fill="#F4F4F4"/>
<path d="M20.4399 7.75H3.56006M14.5 11.5C12.4253 11.5 9.5 11.5 9.5 11.5M20.5 8.25164V18.375C20.5 19.5486 19.5486 20.5 18.375 20.5H5.625C4.4514 20.5 3.5 19.5486 3.5 18.375V8.25164C3.5 7.92175 3.57681 7.59638 3.72434 7.30132L5.1845 4.381C5.45447 3.84107 6.00632 3.5 6.60999 3.5H17.39C17.9937 3.5 18.5455 3.84107 18.8155 4.381L20.2757 7.30132C20.4232 7.59638 20.5 7.92175 20.5 8.25164Z" stroke="#F4F4F4" stroke-width="2" stroke-linecap="round" stroke-linejoin="round"/>
<path d="M9.5 11.5H14.5" stroke="#262626" stroke-width="2" stroke-linecap="round" stroke-linejoin="round"/>
</svg>
