<svg width="140" height="38" viewBox="0 0 140 38" fill="none" xmlns="http://www.w3.org/2000/svg">
<g id="tooltip">
<g id="Group 1597883312">
<g id="Union">
<mask id="path-1-inside-1_608_4286" fill="white">
<path d="M123 0C127.418 9.47362e-05 131 3.58178 131 8V30C131 34.4182 127.418 37.9999 123 38H17.9998C13.5815 38 9.99982 34.4183 9.99982 30V25.927C9.99982 25.5697 9.80919 25.2396 9.49975 25.0609L0.500074 19.866C-0.166665 19.4811 -0.166698 18.5188 0.500015 18.1339L9.49981 12.9381C9.80922 12.7595 9.99982 12.4293 9.99982 12.0721V8C9.99982 3.58172 13.5815 0 17.9998 0H123Z"/>
</mask>
<path d="M123 0C127.418 9.47362e-05 131 3.58178 131 8V30C131 34.4182 127.418 37.9999 123 38H17.9998C13.5815 38 9.99982 34.4183 9.99982 30V25.927C9.99982 25.5697 9.80919 25.2396 9.49975 25.0609L0.500074 19.866C-0.166665 19.4811 -0.166698 18.5188 0.500015 18.1339L9.49981 12.9381C9.80922 12.7595 9.99982 12.4293 9.99982 12.0721V8C9.99982 3.58172 13.5815 0 17.9998 0H123Z" fill="#F4F4F4"/>
<path d="M123 0L123 -1H123V0ZM131 8H132H131ZM123 38V39H123L123 38ZM9.99982 30H8.99982H9.99982ZM0.500074 19.866L0.000147135 20.7321L0.500074 19.866ZM0.500015 18.1339L3.12771e-05 17.2679L0.500015 18.1339ZM9.49975 25.0609L8.99982 25.927L9.49975 25.0609ZM123 0L123 1C126.866 1.00008 130 4.13409 130 8H131H132C132 3.02947 127.97 -0.999893 123 -1L123 0ZM131 8H130V30H131H132V8H131ZM131 30H130C130 33.8659 126.866 36.9999 123 37L123 38L123 39C127.97 38.9999 132 34.9705 132 30H131ZM123 38V37H17.9998V38V39H123V38ZM17.9998 38V37C14.1338 37 10.9998 33.866 10.9998 30H9.99982H8.99982C8.99982 34.9706 13.0293 39 17.9998 39V38ZM9.99982 30H10.9998V25.927H9.99982H8.99982V30H9.99982ZM9.49975 25.0609L9.99967 24.1949L1 18.9999L0.500074 19.866L0.000147135 20.7321L8.99982 25.927L9.49975 25.0609ZM0.500015 18.1339L1 18.9999L9.99979 13.8041L9.49981 12.9381L8.99982 12.0721L3.12771e-05 17.2679L0.500015 18.1339ZM9.99982 12.0721H10.9998V8H9.99982H8.99982V12.0721H9.99982ZM9.99982 8H10.9998C10.9998 4.13401 14.1338 1 17.9998 1V0V-1C13.0293 -1 8.99982 3.02944 8.99982 8H9.99982ZM17.9998 0V1H123V0V-1H17.9998V0ZM9.49981 12.9381L9.99979 13.8041C10.6186 13.4469 10.9998 12.7866 10.9998 12.0721H9.99982H8.99982L9.49981 12.9381ZM0.500074 19.866L1 18.9999H1L0.500015 18.1339L3.12771e-05 17.2679C-1.3334 18.0377 -1.33333 19.9623 0.000147135 20.7321L0.500074 19.866ZM9.99982 25.927H10.9998C10.9998 25.2124 10.6186 24.5521 9.99967 24.1949L9.49975 25.0609L8.99982 25.927H9.99982Z" fill="#E0E0E0" mask="url(#path-1-inside-1_608_4286)"/>
</g>
<path id="10&#236;&#180;&#136;&#235;&#167;&#140;&#236;&#151;&#144; &#235;&#161;&#156;&#234;&#183;&#184;&#236;&#157;&#184;!" d="M23.2969 13.6875V25H21.5625V15.4062H21.5L18.7969 17.1719V15.5312L21.6094 13.6875H23.2969ZM29.7094 25.1562C27.0844 25.1562 25.5531 23.0469 25.5531 19.3438C25.5531 15.6719 27.1156 13.5312 29.7094 13.5312C32.3031 13.5312 33.8656 15.6719 33.8656 19.3438C33.8656 23.0469 32.3187 25.1562 29.7094 25.1562ZM29.7094 23.6719C31.2406 23.6719 32.1469 22.1719 32.1469 19.3438C32.1469 16.5312 31.225 14.9844 29.7094 14.9844C28.1937 14.9844 27.2719 16.5312 27.2719 19.3438C27.2719 22.1719 28.1781 23.6719 29.7094 23.6719ZM47.575 23.3906V24.6094H34.7625V23.3906H40.4188V20.3438H41.8875V23.3906H47.575ZM46.3875 14.4531V15.6562H41.9031C41.9656 17.6172 44.0438 19.2422 46.9188 19.6719L46.3563 20.8281C44.0203 20.4609 42.0672 19.3516 41.1531 17.7188C40.2391 19.3516 38.2938 20.4609 35.95 20.8281L35.3875 19.6719C38.2625 19.2422 40.325 17.6172 40.4031 15.6562H35.9188V14.4531H40.4188V12.5781H41.8875V14.4531H46.3875ZM55.2844 13.5625V20.0938H48.7375V13.5625H55.2844ZM50.1906 14.7656V18.9219H53.8312V14.7656H50.1906ZM59.1906 12.3125V16.5H61.2219V17.75H59.1906V22.5781H57.7062V12.3125H59.1906ZM59.7844 24.8281V26.0312H50.3156V21.5938H51.8V24.8281H59.7844ZM73.6656 12.3281V26.3281H72.2438V12.3281H73.6656ZM70.8219 12.5938V25.6406H69.4V18.8906H67.8219C67.6969 21.625 66.525 23.3281 64.7906 23.3125C62.9625 23.3281 61.775 21.4062 61.775 18.375C61.775 15.3438 62.9625 13.4375 64.7906 13.4531C66.4938 13.4375 67.65 15.0547 67.8219 17.6875H69.4V12.5938H70.8219ZM64.7906 14.8438C63.775 14.8438 63.15 16.1406 63.15 18.375C63.15 20.6094 63.775 21.9062 64.7906 21.9062C65.8219 21.9062 66.4625 20.6094 66.4625 18.375C66.4625 16.1406 65.8219 14.8438 64.7906 14.8438ZM91.3656 23.4062V24.6562H78.5531V23.4062H84.1937V20.9531H80.1156V16.5H88.3344V14.5312H80.0844V13.3125H89.8031V17.6875H81.5844V19.7344H90.1312V20.9531H85.6625V23.4062H91.3656ZM103.075 13.75V15.25C103.075 17.0625 103.075 19.0312 102.559 22.0156L101.044 21.875C101.606 19.0781 101.606 17.0156 101.606 15.25V14.9688H93.3562V13.75H103.075ZM104.747 23.1094V24.3438H91.9812V23.1094H104.747ZM117.019 12.3438V22.5156H115.534V12.3438H117.019ZM117.441 24.8281V26.0312H107.863V21.4844H109.363V24.8281H117.441ZM109.425 13.2812C111.534 13.2812 113.144 14.7188 113.144 16.75C113.144 18.8125 111.534 20.2344 109.425 20.2344C107.316 20.2344 105.691 18.8125 105.691 16.75C105.691 14.7188 107.316 13.2812 109.425 13.2812ZM109.425 14.5781C108.113 14.5781 107.144 15.4688 107.144 16.75C107.144 18.0625 108.113 18.9375 109.425 18.9375C110.706 18.9375 111.691 18.0625 111.691 16.75C111.691 15.4688 110.706 14.5781 109.425 14.5781ZM121.416 13.6875L121.275 21.7344H119.728L119.588 13.6875H121.416ZM120.509 25.1094C119.9 25.1094 119.384 24.6094 119.4 24C119.384 23.3906 119.9 22.8906 120.509 22.8906C121.103 22.8906 121.619 23.3906 121.619 24C121.619 24.6094 121.103 25.1094 120.509 25.1094Z" fill="#161616"/>
</g>
</g>
</svg>
