<svg width="22" height="22" viewBox="0 0 22 22" fill="none" xmlns="http://www.w3.org/2000/svg">
<path fill-rule="evenodd" clip-rule="evenodd" d="M9.1307 9.98545C9.35265 9.83799 9.61239 9.75763 9.87883 9.754C10.1453 9.75037 10.4071 9.82363 10.633 9.96499L13.7687 11.9091C14.2692 12.2198 14.4887 12.7556 14.4887 13.2412C14.4887 13.7277 14.2692 14.2635 13.7687 14.5733L10.633 16.5174C10.1307 16.8281 9.55674 16.7779 9.1307 16.4969C8.91584 16.3529 8.74034 16.1575 8.62013 15.9285C8.49992 15.6994 8.43881 15.444 8.44234 15.1853V11.2971C8.44234 10.7454 8.71118 10.2608 9.1307 9.98545ZM9.89627 11.1519C9.87859 11.1631 9.83766 11.204 9.83766 11.2971V15.1853C9.83766 15.2784 9.87859 15.3193 9.89627 15.3305L9.8972 15.3314L13.0339 13.3872C13.0534 13.3751 13.0934 13.3324 13.0934 13.2412C13.0934 13.15 13.0534 13.1082 13.0339 13.0952L9.89813 11.151L9.89627 11.1519Z" fill="#A8A8A8" stroke="#A8A8A8" stroke-width="0.6"/>
<path fill-rule="evenodd" clip-rule="evenodd" d="M7.93052 1.00021C7.72587 1.00021 7.56773 1.00021 7.43192 1.0151C6.82501 1.08011 6.26135 1.35999 5.84273 1.8042C5.4241 2.24842 5.17811 2.82767 5.14918 3.43737C4.60332 3.60203 4.12394 3.93598 3.78032 4.39096C3.43671 4.84594 3.24664 5.39839 3.23759 5.96848C2.67947 6.13592 2.19669 6.40103 1.80228 6.82706C1.19578 7.48286 1.00788 8.28936 1.00043 9.23259C0.993922 10.1395 1.15578 11.2856 1.35577 12.7079L1.76507 15.6045C1.92134 16.7171 2.04878 17.6212 2.24692 18.3291C2.45436 19.0705 2.7604 19.6798 3.32596 20.1486C3.88781 20.6137 4.55384 20.8137 5.3408 20.9086C6.10265 20.9998 7.06077 20.9998 8.25237 20.9998H13.7471C14.9397 20.9998 15.8978 20.9998 16.6587 20.9086C17.4466 20.8137 18.1126 20.6137 18.6745 20.1486C19.24 19.6798 19.5461 19.0696 19.7535 18.3291C19.9516 17.6212 20.0791 16.7171 20.2363 15.6036L20.6447 12.7079C20.8456 11.2846 21.0074 10.1395 21 9.23259C20.9926 8.28936 20.8047 7.48286 20.1982 6.82706C19.8037 6.40103 19.321 6.13685 18.7619 5.96848C18.7527 5.39867 18.5627 4.84652 18.2193 4.39174C17.8759 3.93696 17.3968 3.60308 16.8513 3.4383C16.8225 2.82844 16.5766 2.24896 16.158 1.80456C15.7394 1.36015 15.1756 1.08014 14.5685 1.0151C14.4318 1.00021 14.2746 1.00021 14.0699 1.00021H7.93052ZM17.335 5.72383C17.2711 5.43903 17.1121 5.1845 16.8841 5.00221C16.6562 4.81992 16.3729 4.72076 16.081 4.72106H5.9194C5.29708 4.72106 4.79198 5.15826 4.66454 5.72383C5.52592 5.65128 6.58078 5.65127 7.85238 5.65127H14.1481C15.4187 5.65127 16.4736 5.65128 17.3359 5.72383M15.4364 3.32574C15.387 3.08389 15.262 2.86403 15.0794 2.69796C14.8968 2.5319 14.666 2.42826 14.4206 2.40204C14.2915 2.39448 14.162 2.39231 14.0327 2.39553H7.96772C7.70726 2.39553 7.63192 2.39646 7.57983 2.40204C7.33439 2.42826 7.10366 2.5319 6.92104 2.69796C6.73842 2.86403 6.61339 3.08389 6.56403 3.32574H15.4364ZM2.82644 7.77495C3.10829 7.47077 3.53154 7.26891 4.35478 7.15915C5.1929 7.04752 6.31567 7.04659 7.90447 7.04659H14.096C15.6848 7.04659 16.8075 7.04845 17.6457 7.15915C18.4689 7.26891 18.8921 7.47077 19.174 7.77495C19.4493 8.07262 19.5991 8.47726 19.6047 9.24376C19.6103 10.0344 19.4651 11.0763 19.2549 12.5702L18.8614 15.3608C18.6959 16.5338 18.5805 17.345 18.4103 17.9533C18.2456 18.5394 18.0531 18.851 17.7843 19.0733C17.5117 19.3003 17.1452 19.4454 16.4931 19.5235C15.8243 19.6035 14.9508 19.6045 13.7025 19.6045H8.29795C7.0496 19.6045 6.17613 19.6035 5.50731 19.5235C4.85616 19.4445 4.48873 19.3003 4.21618 19.0742C3.94735 18.851 3.75479 18.5384 3.59014 17.9533C3.41992 17.345 3.30457 16.5338 3.13899 15.3608L2.74551 12.5702C2.53528 11.0772 2.39017 10.0344 2.39575 9.24376C2.40133 8.47726 2.5511 8.07169 2.82644 7.77495Z" fill="#A8A8A8"/>
<path d="M17.335 5.72383C17.2711 5.43903 17.1121 5.1845 16.8841 5.00221C16.6562 4.81992 16.3729 4.72076 16.081 4.72106H5.9194C5.29708 4.72106 4.79198 5.15826 4.66454 5.72383C5.52592 5.65127 6.58078 5.65127 7.85238 5.65127H14.1481C15.4187 5.65127 16.4736 5.65127 17.3359 5.72383M7.93052 1.00021C7.72587 1.00021 7.56773 1.00021 7.43192 1.0151C6.82501 1.08011 6.26135 1.35999 5.84273 1.8042C5.4241 2.24842 5.17811 2.82767 5.14918 3.43737C4.60332 3.60203 4.12394 3.93598 3.78032 4.39096C3.43671 4.84594 3.24664 5.39839 3.23759 5.96848C2.67947 6.13592 2.19669 6.40103 1.80228 6.82706C1.19578 7.48286 1.00788 8.28936 1.00043 9.23259C0.993922 10.1395 1.15578 11.2856 1.35578 12.7079L1.76507 15.6045C1.92134 16.7171 2.04878 17.6212 2.24692 18.3291C2.45436 19.0705 2.7604 19.6798 3.32596 20.1486C3.88781 20.6137 4.55384 20.8137 5.3408 20.9086C6.10265 20.9998 7.06077 20.9998 8.25237 20.9998H13.7471C14.9397 20.9998 15.8978 20.9998 16.6587 20.9086C17.4466 20.8137 18.1126 20.6137 18.6745 20.1486C19.24 19.6798 19.5461 19.0696 19.7535 18.3291C19.9516 17.6212 20.0791 16.7171 20.2363 15.6036L20.6447 12.7079C20.8456 11.2846 21.0074 10.1395 21 9.23259C20.9926 8.28936 20.8047 7.48286 20.1982 6.82706C19.8037 6.40103 19.321 6.13685 18.7619 5.96848C18.7527 5.39867 18.5627 4.84652 18.2193 4.39174C17.8759 3.93696 17.3968 3.60308 16.8513 3.4383C16.8225 2.82844 16.5766 2.24896 16.158 1.80456C15.7394 1.36015 15.1756 1.08014 14.5685 1.0151C14.4318 1.00021 14.2746 1.00021 14.0699 1.00021H7.93052ZM15.4364 3.32574C15.387 3.08389 15.262 2.86403 15.0794 2.69796C14.8968 2.5319 14.666 2.42826 14.4206 2.40204C14.2915 2.39448 14.162 2.39231 14.0327 2.39553H7.96772C7.70726 2.39553 7.63192 2.39646 7.57983 2.40204C7.33439 2.42826 7.10366 2.5319 6.92104 2.69796C6.73842 2.86403 6.61339 3.08389 6.56403 3.32574H15.4364ZM2.82644 7.77495C3.1083 7.47077 3.53154 7.26891 4.35478 7.15915C5.1929 7.04752 6.31567 7.04659 7.90447 7.04659H14.096C15.6848 7.04659 16.8075 7.04845 17.6457 7.15915C18.4689 7.26891 18.8921 7.47077 19.174 7.77495C19.4493 8.07262 19.5991 8.47726 19.6047 9.24376C19.6103 10.0344 19.4651 11.0763 19.2549 12.5702L18.8614 15.3608C18.6959 16.5338 18.5805 17.345 18.4103 17.9533C18.2456 18.5394 18.0531 18.851 17.7843 19.0733C17.5117 19.3003 17.1452 19.4454 16.4931 19.5235C15.8243 19.6035 14.9508 19.6045 13.7025 19.6045H8.29795C7.0496 19.6045 6.17613 19.6035 5.50731 19.5235C4.85616 19.4445 4.48873 19.3003 4.21618 19.0742C3.94735 18.851 3.75479 18.5384 3.59014 17.9533C3.41992 17.345 3.30457 16.5338 3.13899 15.3608L2.74551 12.5702C2.53528 11.0772 2.39017 10.0344 2.39575 9.24376C2.40133 8.47726 2.5511 8.07169 2.82644 7.77495Z" stroke="#A8A8A8" stroke-width="0.6"/>
</svg>
