<svg width="24" height="24" viewBox="0 0 24 24" fill="none" xmlns="http://www.w3.org/2000/svg">
<path fill-rule="evenodd" clip-rule="evenodd" d="M10.1307 10.9855C10.3526 10.838 10.6124 10.7577 10.8788 10.754C11.1453 10.7504 11.4071 10.8237 11.633 10.965L14.7687 12.9092C15.2692 13.2199 15.4887 13.7557 15.4887 14.2412C15.4887 14.7277 15.2692 15.2635 14.7687 15.5733L11.633 17.5174C11.1307 17.8281 10.5567 17.7779 10.1307 17.497C9.91584 17.3529 9.74034 17.1575 9.62013 16.9285C9.49992 16.6995 9.43881 16.444 9.44234 16.1854V12.2971C9.44234 11.7455 9.71118 11.2608 10.1307 10.9855ZM10.8963 12.152C10.8786 12.1631 10.8377 12.2041 10.8377 12.2971V16.1854C10.8377 16.2784 10.8786 16.3193 10.8963 16.3305L10.8972 16.3314L14.0339 14.3873C14.0534 14.3752 14.0934 14.3324 14.0934 14.2412C14.0934 14.1501 14.0534 14.1082 14.0339 14.0952L10.8981 12.151L10.8963 12.152Z" fill="#A8A8A8" stroke="#A8A8A8" stroke-width="0.6"/>
<path fill-rule="evenodd" clip-rule="evenodd" d="M8.93052 2.00024C8.72587 2.00024 8.56773 2.00024 8.43192 2.01513C7.82501 2.08014 7.26135 2.36002 6.84273 2.80424C6.4241 3.24845 6.17811 3.8277 6.14918 4.4374C5.60332 4.60206 5.12394 4.93601 4.78032 5.39099C4.43671 5.84597 4.24664 6.39842 4.23759 6.96851C3.67947 7.13595 3.19669 7.40106 2.80228 7.82709C2.19578 8.48289 2.00788 9.28939 2.00043 10.2326C1.99392 11.1396 2.15578 12.2856 2.35577 13.7079L2.76507 16.6046C2.92134 17.7171 3.04878 18.6213 3.24692 19.3292C3.45436 20.0705 3.7604 20.6798 4.32596 21.1487C4.88781 21.6138 5.55384 21.8138 6.3408 21.9086C7.10265 21.9998 8.06077 21.9998 9.25237 21.9998H14.7471C15.9397 21.9998 16.8978 21.9998 17.6587 21.9086C18.4466 21.8138 19.1126 21.6138 19.6745 21.1487C20.24 20.6798 20.5461 20.0696 20.7535 19.3292C20.9516 18.6213 21.0791 17.7171 21.2363 16.6036L21.6447 13.7079C21.8456 12.2847 22.0074 11.1396 22 10.2326C21.9926 9.28939 21.8047 8.48289 21.1982 7.82709C20.8037 7.40106 20.321 7.13688 19.7619 6.96851C19.7527 6.3987 19.5627 5.84655 19.2193 5.39177C18.8759 4.93699 18.3968 4.60311 17.8513 4.43833C17.8225 3.82847 17.5766 3.24899 17.158 2.80459C16.7394 2.36018 16.1756 2.08017 15.5685 2.01513C15.4318 2.00024 15.2746 2.00024 15.0699 2.00024H8.93052ZM18.335 6.72386C18.2711 6.43906 18.1121 6.18454 17.8841 6.00224C17.6562 5.81995 17.3729 5.72079 17.081 5.72109H6.9194C6.29708 5.72109 5.79198 6.15829 5.66454 6.72386C6.52592 6.65131 7.58078 6.65131 8.85238 6.65131H15.1481C16.4187 6.65131 17.4736 6.65131 18.3359 6.72386M16.4364 4.32577C16.387 4.08393 16.262 3.86406 16.0794 3.69799C15.8968 3.53193 15.666 3.42829 15.4206 3.40207C15.2915 3.39451 15.162 3.39234 15.0327 3.39556H8.96772C8.70726 3.39556 8.63192 3.39649 8.57983 3.40207C8.33439 3.42829 8.10366 3.53193 7.92104 3.69799C7.73842 3.86406 7.61339 4.08393 7.56403 4.32577H16.4364ZM3.82644 8.77498C4.10829 8.4708 4.53154 8.26894 5.35478 8.15918C6.1929 8.04755 7.31567 8.04662 8.90447 8.04662H15.096C16.6848 8.04662 17.8075 8.04848 18.6457 8.15918C19.4689 8.26894 19.8921 8.4708 20.174 8.77498C20.4493 9.07265 20.5991 9.47729 20.6047 10.2438C20.6103 11.0345 20.4651 12.0763 20.2549 13.5702L19.8614 16.3609C19.6959 17.5339 19.5805 18.345 19.4103 18.9534C19.2456 19.5394 19.0531 19.851 18.7843 20.0733C18.5117 20.3003 18.1452 20.4454 17.4931 20.5236C16.8243 20.6036 15.9508 20.6045 14.7025 20.6045H9.29795C8.0496 20.6045 7.17613 20.6036 6.50731 20.5236C5.85616 20.4445 5.48873 20.3003 5.21618 20.0743C4.94735 19.851 4.75479 19.5385 4.59014 18.9534C4.41992 18.345 4.30457 17.5339 4.13899 16.3609L3.74551 13.5702C3.53528 12.0772 3.39017 11.0345 3.39575 10.2438C3.40133 9.47729 3.5511 9.07172 3.82644 8.77498Z" fill="#A8A8A8"/>
<path d="M18.335 6.72386C18.2711 6.43906 18.1121 6.18453 17.8841 6.00224C17.6562 5.81995 17.3729 5.72079 17.081 5.72109H6.9194C6.29708 5.72109 5.79198 6.15829 5.66454 6.72386C6.52592 6.65131 7.58078 6.65131 8.85238 6.65131H15.1481C16.4187 6.65131 17.4736 6.65131 18.3359 6.72386M8.93052 2.00024C8.72587 2.00024 8.56773 2.00024 8.43192 2.01513C7.82501 2.08014 7.26135 2.36002 6.84273 2.80424C6.4241 3.24845 6.17811 3.8277 6.14918 4.4374C5.60332 4.60206 5.12394 4.93601 4.78032 5.39099C4.43671 5.84597 4.24664 6.39842 4.23759 6.96851C3.67947 7.13595 3.19669 7.40106 2.80228 7.82709C2.19578 8.48289 2.00788 9.28939 2.00043 10.2326C1.99392 11.1396 2.15578 12.2856 2.35578 13.7079L2.76507 16.6046C2.92134 17.7171 3.04878 18.6213 3.24692 19.3292C3.45436 20.0705 3.7604 20.6798 4.32596 21.1487C4.88781 21.6138 5.55384 21.8138 6.3408 21.9086C7.10265 21.9998 8.06077 21.9998 9.25237 21.9998H14.7471C15.9397 21.9998 16.8978 21.9998 17.6587 21.9086C18.4466 21.8138 19.1126 21.6138 19.6745 21.1487C20.24 20.6798 20.5461 20.0696 20.7535 19.3292C20.9516 18.6213 21.0791 17.7171 21.2363 16.6036L21.6447 13.7079C21.8456 12.2847 22.0074 11.1396 22 10.2326C21.9926 9.28939 21.8047 8.48289 21.1982 7.82709C20.8037 7.40106 20.321 7.13688 19.7619 6.96851C19.7527 6.3987 19.5627 5.84655 19.2193 5.39177C18.8759 4.93699 18.3968 4.60311 17.8513 4.43833C17.8225 3.82847 17.5766 3.24899 17.158 2.80459C16.7394 2.36018 16.1756 2.08017 15.5685 2.01513C15.4318 2.00024 15.2746 2.00024 15.0699 2.00024H8.93052ZM16.4364 4.32577C16.387 4.08393 16.262 3.86406 16.0794 3.69799C15.8968 3.53193 15.666 3.42829 15.4206 3.40207C15.2915 3.39451 15.162 3.39234 15.0327 3.39556H8.96772C8.70726 3.39556 8.63192 3.39649 8.57983 3.40207C8.33439 3.42829 8.10366 3.53193 7.92104 3.69799C7.73842 3.86406 7.61339 4.08393 7.56403 4.32577H16.4364ZM3.82644 8.77498C4.1083 8.4708 4.53154 8.26894 5.35478 8.15918C6.1929 8.04755 7.31567 8.04662 8.90447 8.04662H15.096C16.6848 8.04662 17.8075 8.04848 18.6457 8.15918C19.4689 8.26894 19.8921 8.4708 20.174 8.77498C20.4493 9.07265 20.5991 9.47729 20.6047 10.2438C20.6103 11.0345 20.4651 12.0763 20.2549 13.5702L19.8614 16.3609C19.6959 17.5339 19.5805 18.345 19.4103 18.9534C19.2456 19.5394 19.0531 19.851 18.7843 20.0733C18.5117 20.3003 18.1452 20.4454 17.4931 20.5236C16.8243 20.6036 15.9508 20.6045 14.7025 20.6045H9.29795C8.0496 20.6045 7.17613 20.6036 6.50731 20.5236C5.85616 20.4445 5.48873 20.3003 5.21618 20.0743C4.94735 19.851 4.75479 19.5385 4.59014 18.9534C4.41992 18.345 4.30457 17.5339 4.13899 16.3609L3.74551 13.5702C3.53528 12.0772 3.39017 11.0345 3.39575 10.2438C3.40133 9.47729 3.5511 9.07172 3.82644 8.77498Z" stroke="#A8A8A8" stroke-width="0.6"/>
</svg>
