<svg width="24" height="24" viewBox="0 0 24 24" fill="none" xmlns="http://www.w3.org/2000/svg">
<path d="M3 21L20 21" stroke="#F4F4F4" stroke-width="2" stroke-linecap="round"/>
<path d="M14.4971 2.72296C15.4712 1.75899 17.0405 1.75903 18.0146 2.72296L19.5225 4.21515C20.5111 5.19354 20.5111 6.79148 19.5225 7.76983L8.90332 18.2776C8.43527 18.7408 7.80299 19.0013 7.14453 19.0013H5.62109C4.24058 19.0013 3.12142 17.8817 3.12109 16.5013V14.9984C3.1212 14.3473 3.38194 13.7229 3.84473 13.265L14.4971 2.72296ZM16.6074 4.14483C16.4126 3.95219 16.0991 3.95209 15.9043 4.14483L5.25098 14.6868C5.1679 14.7691 5.1212 14.8814 5.12109 14.9984V16.5013C5.12142 16.7771 5.34515 17.0013 5.62109 17.0013H7.14453C7.27619 17.0013 7.4025 16.9484 7.49609 16.8558L18.1152 6.34796C18.3129 6.15231 18.3129 5.83271 18.1152 5.63702L16.6074 4.14483Z" fill="#F4F4F4"/>
</svg>
