<svg xmlns="http://www.w3.org/2000/svg" width="24" height="24" viewBox="0 0 24 24" fill="none">
  <path d="M19.1688 5.28475C19.5599 5.67455 19.5593 6.30705 19.1682 6.69677L13.3289 12.5137L18.8911 18.0566C19.2823 18.4464 19.2836 19.0794 18.8938 19.4707C18.504 19.8619 17.8708 19.8632 17.4795 19.4735L11.9119 13.925L6.34489 19.4714C5.95371 19.8604 5.32028 19.8606 4.9292 19.4714C4.53803 19.0817 4.53751 18.4492 4.92851 18.0594L10.4948 12.5137L4.65764 6.69885C4.2664 6.30906 4.2651 5.676 4.65488 5.28475C5.04467 4.89363 5.67798 4.89225 6.0692 5.28198L11.9119 11.1023L17.7518 5.28475C18.143 4.89519 18.7777 4.89504 19.1688 5.28475Z" fill="#F4F4F4"/>
</svg>